<svg id="Layer_1" xmlns="http://www.w3.org/2000/svg" viewBox="-160.8 442.6 999.3 196.8"><style>.st0{fill:#FFFFFF;} .st1{display:none;}</style><g id="assets"><g id="XMLID_200_"><path class="st0" d="M-115.3 538.7c0-28.3 23.8-51.4 52.1-51.4 15.7 0 26.8 6.1 35.2 14.2l-9.9 9.9c-6-5.6-14.2-10-25.3-10-20.7 0-36.8 16.6-36.8 37.3S-83.8 576-63.2 576c13.4 0 21-5.4 25.9-10.3 4-4 6.6-9.8 7.6-17.7h-33.6v-14H-16c.5 2.5.8 5.5.8 8.8 0 10.5-2.9 23.6-12.2 32.8-9 9.4-20.5 14.4-35.8 14.4-28.3.1-52.1-23-52.1-51.3zM23 523.9c-18.3 0-33.2 13.9-33.2 33.1 0 19 14.9 33.1 33.2 33.1 18.3 0 33.2-14 33.2-33.1 0-19.2-15-33.1-33.2-33.1zm0 53.1c-10 0-18.7-8.3-18.7-20 0-11.9 8.6-20 18.7-20 10 0 18.7 8.1 18.7 20-.1 11.8-8.7 20-18.7 20zM95.4 523.9c-18.3 0-33.2 13.9-33.2 33.1 0 19 14.9 33.1 33.2 33.1 18.3 0 33.2-14 33.2-33.1 0-19.2-14.9-33.1-33.2-33.1zm0 53.1c-10 0-18.7-8.3-18.7-20 0-11.9 8.6-20 18.7-20 10 0 18.7 8.1 18.7 20-.1 11.8-8.7 20-18.7 20zM184.3 525.9v5.4h-.5c-3.3-3.9-9.5-7.4-17.4-7.4-16.5 0-31.7 14.5-31.7 33.2 0 18.5 15.2 32.9 31.7 32.9 7.9 0 14.2-3.5 17.4-7.5h.5v4.8c0 12.7-6.8 19.4-17.7 19.4-8.9 0-14.4-6.4-16.7-11.8l-12.7 5.3c3.6 8.8 13.3 19.5 29.3 19.5 17 0 31.4-10 31.4-34.4v-59.4h-13.6zM167.6 577c-10 0-18.4-8.4-18.4-19.9 0-11.6 8.4-20.2 18.4-20.2 9.9 0 17.7 8.5 17.7 20.2 0 11.5-7.8 19.9-17.7 19.9zM208.1 490.8h14.5V588h-14.5zM262.4 577c-7.4 0-12.7-3.4-16-10l44.2-18.3-1.5-3.8c-2.8-7.4-11.1-21-28.3-21-17 0-31.2 13.4-31.2 33.1 0 18.5 14 33.1 32.8 33.1 15.2 0 23.9-9.3 27.6-14.7l-11.3-7.5c-3.7 5.5-8.9 9.1-16.3 9.1zm-1.1-40.3c5.8 0 10.6 2.9 12.3 7L244 556c-.4-12.8 9.9-19.3 17.3-19.3z"/></g><g id="XMLID_199_"><path class="st0" d="M322.3 588.1v-86.9h26.6c13.3 0 24 4 32 12.1s12 18.5 12 31.4-4 23.3-12 31.4c-8 8.1-18.7 12.1-32 12.1l-26.6-.1zm11.2-10.7h15.4c10 0 18-2.9 23.8-8.6 5.9-5.7 8.8-13.8 8.8-24.1s-2.9-18.3-8.8-24.1c-5.9-5.8-13.8-8.7-23.8-8.7h-15.4v65.5zM429.4 590c-9 0-16.3-3-21.9-9-5.6-6-8.4-13.5-8.4-22.7 0-8.7 2.7-16.1 8.2-22.3s12.4-9.3 20.9-9.3c8.8 0 15.9 2.9 21.2 8.6s7.9 13.4 7.9 23.1l-.1 2.1h-47c.3 6 2.3 10.7 6 14.2s8 5.2 12.9 5.2c8 0 13.4-3.4 16.3-10.2l10 4.1c-1.9 4.6-5.1 8.5-9.6 11.6-4.4 3-9.9 4.6-16.4 4.6zm16.1-38.8c-.2-3.4-1.8-6.6-4.7-9.7s-7.1-4.6-12.8-4.6c-4.1 0-7.7 1.3-10.7 3.9-3 2.6-5.1 6.1-6.2 10.4h34.4zM492.6 590c-9 0-16.3-3-21.9-9-5.6-6-8.4-13.5-8.4-22.7 0-8.7 2.7-16.1 8.2-22.3s12.4-9.3 20.9-9.3c8.8 0 15.9 2.9 21.2 8.6s7.9 13.4 7.9 23.1l-.1 2.1h-47c.3 6 2.3 10.7 6 14.2s8 5.2 12.9 5.2c8 0 13.4-3.4 16.3-10.2l10 4.1c-1.9 4.6-5.1 8.5-9.6 11.6-4.4 3-9.9 4.6-16.4 4.6zm16.1-38.8c-.2-3.4-1.8-6.6-4.7-9.7s-7.1-4.6-12.8-4.6c-4.1 0-7.7 1.3-10.7 3.9-3 2.6-5.1 6.1-6.2 10.4h34.4zM559.5 590c-4.5 0-8.6-1-12.2-2.9-3.6-1.9-6.3-4.4-8.1-7.3h-.5l.5 8.3v26.2H528v-85.7h10.7v8.3h.5c1.8-2.9 4.5-5.3 8.1-7.3 3.6-1.9 7.7-2.9 12.2-2.9 7.7 0 14.3 3 19.9 9.1 5.6 6.1 8.4 13.6 8.4 22.6s-2.8 16.5-8.4 22.6c-5.5 6-12.2 9-19.9 9zm-1.8-10.2c5.2 0 9.6-2 13.3-5.9 3.7-3.9 5.6-9.1 5.6-15.6s-1.9-11.7-5.6-15.6c-3.7-3.9-8.2-5.9-13.3-5.9-5.3 0-9.7 1.9-13.4 5.8-3.7 3.9-5.5 9.1-5.5 15.7s1.8 11.8 5.5 15.7c3.7 3.9 8.2 5.8 13.4 5.8zM598.3 588.1v-86.9h11.2l30.2 52.9h.5l30.2-52.9h11.2v86.9h-11.2v-51.6l.5-14.6h-.5l-27.2 47.7h-6.6l-27.2-47.7h-.5l.5 14.6v51.6h-11.1zM706.9 513.7c-1.5 1.5-3.4 2.3-5.6 2.3s-4-.8-5.6-2.3c-1.5-1.5-2.3-3.4-2.3-5.6 0-2.2.8-4 2.3-5.6 1.5-1.5 3.4-2.3 5.6-2.3s4 .8 5.6 2.3c1.5 1.5 2.3 3.4 2.3 5.6 0 2.2-.7 4-2.3 5.6zm0 74.4h-11.2v-59.5h11.2v59.5zM729.2 528.6v8.3h.5c1.6-2.8 4.2-5.2 7.6-7.2 3.5-2 7.2-3 11.2-3 7.4 0 13 2.3 16.9 6.8s5.8 10.6 5.8 18.2v36.4H760v-34.7c0-11-4.9-16.5-14.7-16.5-4.6 0-8.4 1.8-11.3 5.5s-4.4 7.9-4.4 12.8v32.9h-11.2v-59.5h10.8zM807 590c-7.7 0-14.3-3-19.9-9.1-5.6-6.1-8.4-13.6-8.4-22.6s2.8-16.5 8.4-22.6c5.6-6.1 12.2-9.1 19.9-9.1 4.5 0 8.6 1 12.2 2.9s6.3 4.4 8.1 7.3h.5l-.5-8.3v-27.3h11.2v86.9h-10.7v-8.3h-.5c-1.8 2.9-4.5 5.3-8.1 7.3-3.6 1.9-7.7 2.9-12.2 2.9zm1.8-10.2c5.3 0 9.7-1.9 13.4-5.8 3.7-3.9 5.5-9.1 5.5-15.7s-1.8-11.8-5.5-15.7c-3.7-3.9-8.2-5.8-13.4-5.8-5.2 0-9.6 2-13.3 5.9-3.7 3.9-5.6 9.1-5.6 15.6s1.9 11.7 5.6 15.6c3.7 3.9 8.1 5.9 13.3 5.9z"/></g></g></svg>