<?xml version="1.0" encoding="utf-8"?>
<!-- Generator: Adobe Illustrator 18.0.0, SVG Export Plug-In . SVG Version: 6.00 Build 0)  -->
<!DOCTYPE svg PUBLIC "-//W3C//DTD SVG 1.1//EN" "http://www.w3.org/Graphics/SVG/1.1/DTD/svg11.dtd">
<svg version="1.1" xmlns="http://www.w3.org/2000/svg" xmlns:xlink="http://www.w3.org/1999/xlink" x="0px" y="0px"
	 viewBox="0 0 250 250" enable-background="new 0 0 250 250" xml:space="preserve" shape-rendering="geometricPrecision">
<g id="logo">
	<g>
		<g>
			<defs>
				<path id="SVGID_1_" d="M37.3,37.3C14.6,60.1,1.7,90.4,1,122.5l0,0.5c0,0.3,0,0.6,0,0.9c0,0.4,0,0.7,0,1c0,0.3,0,0.6,0,0.9
					c0,0.4,0,0.7,0,1l0,0.4c0.6,32.3,13.5,62.6,36.3,85.3c22.8,22.8,53.1,35.7,85.2,36.3l0.5,0c0.3,0,0.6,0,0.9,0c0.4,0,0.7,0,1,0
					h0.9c0.4,0,0.7,0,1,0h0.5v0c0.5,0,1,0,1.4-0.1c1.5-0.1,2.9-0.2,4.4-0.3c1-0.1,1.9-0.2,2.9-0.3c9.9-1.3,19.3-4.4,27.9-9
					c1.4-0.7,2.7-1.5,4-2.3c13.6-8.3,24.8-20.5,31.9-35.7c5.2-11,7.8-22.8,7.8-35.1c0-14-3.5-27.7-10.2-39.9l-0.3-0.5
					c-8.4-15-21.6-27.3-37.2-34.6c-0.4-0.2-0.7-0.3-1.1-0.5c-0.7-0.3-1.5-0.6-2.2-1c-0.1,0-0.2-0.1-0.3-0.1
					c9.4,8.4,15.5,20.4,15.9,33.9v0.2c0,0,0,0.2,0,0.3v1.8c0,0.2,0,0.3,0,0.4c-0.7,25.1-20.9,45.3-45.9,46h-0.1c-0.1,0-0.2,0-0.3,0
					h-1.7c-0.2,0-0.4,0-0.5,0h-0.1c-12.7-0.2-24.9-3-36.2-8.3c-16.9-7.9-31.1-21.3-40.1-37.6l-0.3-0.7c-6.9-12.8-10.6-27.3-10.6-42
					c0-13.1,2.8-25.8,8.3-37.6c0.6-1.2,1.2-2.4,1.8-3.6c0.3-0.5,0.6-1.1,0.9-1.6c0.4-0.8,0.9-1.6,1.4-2.4c0.2-0.4,0.5-0.8,0.7-1.2
					c0.3-0.6,0.7-1.1,1.1-1.7c0.1-0.2,0.2-0.4,0.4-0.6c0.4-0.6,0.8-1.2,1.2-1.8c1.8-2.6,3.7-5.1,5.8-7.5c0.5-0.5,0.9-1.1,1.4-1.6
					c0.1-0.2,0.3-0.3,0.5-0.5c0.5-0.6,1.1-1.2,1.6-1.7c0,0,0.1-0.1,0.1-0.1c0.5-0.5,1-1.1,1.6-1.6c0.2-0.2,0.4-0.4,0.6-0.6
					c0.4-0.4,0.8-0.7,1.2-1.1c0.3-0.3,0.6-0.6,1-0.9c0.5-0.4,0.9-0.8,1.4-1.2c0,0,0.1-0.1,0.1-0.1c0.6-0.5,1.3-1.1,1.9-1.6
					c0.7-0.6,1.4-1.1,2.1-1.6C59,19.1,47.4,27.2,37.3,37.3"/>
			</defs>
			<linearGradient id="SVGID_2_" gradientUnits="userSpaceOnUse" x1="1.001" y1="131.0342" x2="207.7583" y2="131.0342">
				<stop  offset="0" style="stop-color:#2694D2"/>
				<stop  offset="0.3147" style="stop-color:#1B87C8"/>
				<stop  offset="0.7292" style="stop-color:#0C7BBE"/>
				<stop  offset="1" style="stop-color:#0377BB"/>
			</linearGradient>
			<use xlink:href="#SVGID_1_"  overflow="visible" fill="url(#SVGID_2_)"/>
			<clipPath id="SVGID_3_">
				<use xlink:href="#SVGID_1_"  overflow="visible"/>
			</clipPath>
		</g>
		<g>
			<defs>
				<path id="SVGID_4_" d="M122.7,1L122.7,1c-2,0.1-3.9,0.2-5.8,0.4c-1,0.1-1.9,0.2-2.9,0.3c-1,0.1-1.9,0.3-2.9,0.4
					c-1,0.2-1.9,0.3-2.8,0.5c-1.9,0.4-3.7,0.8-5.6,1.3c-1.8,0.5-3.6,1.1-5.4,1.7c-1.8,0.6-3.5,1.3-5.3,2.1
					c-9.5,4.1-18.2,10-25.5,17.3c-0.7,0.7-1.3,1.3-2,2C58.7,33.4,53.8,40.6,50,48.6c-5.2,11-7.8,22.8-7.8,35.1
					c0,13.9,3.5,27.7,10.2,39.8l0.3,0.5c8.4,15,21.6,27.3,37.2,34.6c1.2,0.6,2.5,1.1,3.7,1.6c-9.4-8.4-15.5-20.5-15.9-34v-0.2v-0.3
					l0-0.9l0-0.9c0-0.2,0-0.3,0-0.4c0.7-25.1,20.9-45.2,45.9-45.9h0.5l0.9,0h0.7c0,0,0.1,0,0.2,0h0.5c0.6,0,1.2,0,1.7,0
					c1.8,0.1,3.6,0.2,5.3,0.3h0c0.8,0.1,1.6,0.2,2.3,0.3c0.8,0.1,1.6,0.2,2.3,0.3h0l2.3,0.4c0.4,0.1,0.7,0.1,1.1,0.2
					c0.4,0.1,0.8,0.2,1.2,0.2c0.4,0.1,0.7,0.1,1,0.2c0.5,0.1,1,0.2,1.5,0.3c0.3,0.1,0.6,0.2,1,0.2c0.4,0.1,0.7,0.2,1.1,0.3
					c0.3,0.1,0.7,0.2,1.1,0.3c0.4,0.1,0.7,0.2,1.1,0.3c0.8,0.2,1.7,0.5,2.5,0.8l0.8,0.3c1,0.3,2,0.7,3,1.1l0.2,0.1
					c0.2,0.1,0.3,0.1,0.5,0.2c0.5,0.2,1.1,0.4,1.6,0.6c1,0.4,2,0.8,3,1.3c0.4,0.2,0.8,0.4,1.2,0.5c16.9,7.9,31.1,21.2,40.1,37.6
					l0.4,0.7c6.9,12.8,10.6,27.3,10.6,42c0,13.1-2.8,25.8-8.3,37.6c-0.6,1.2-1.2,2.5-1.8,3.6c-0.3,0.5-0.6,1.1-0.9,1.6
					c-0.4,0.8-0.9,1.6-1.4,2.4c-0.2,0.4-0.5,0.8-0.7,1.2c-0.3,0.5-0.6,1-0.9,1.5c-0.2,0.4-0.5,0.8-0.8,1.2c-0.2,0.3-0.4,0.6-0.6,1
					c-0.3,0.5-0.7,1-1,1.5c-0.2,0.2-0.3,0.4-0.5,0.6c-0.4,0.6-0.8,1.1-1.3,1.7c-0.5,0.7-1.1,1.4-1.7,2.1c-0.9,1.1-1.9,2.3-2.9,3.4
					c-0.3,0.4-0.7,0.8-1,1.1c-0.1,0.1-0.2,0.2-0.3,0.3c-0.5,0.5-1,1.1-1.5,1.6c-0.3,0.3-0.5,0.5-0.8,0.8c-0.5,0.5-0.9,0.9-1.4,1.4
					c-0.2,0.2-0.5,0.4-0.7,0.7c-0.4,0.4-0.9,0.8-1.3,1.2c-0.3,0.2-0.6,0.5-0.9,0.7c-0.5,0.4-1,0.9-1.6,1.3c-1,0.8-1.9,1.6-2.9,2.3
					c12.5-6,24.1-14.2,34.2-24.2c22.8-22.8,35.7-53,36.3-85.2l0-0.5c0-0.4,0-0.7,0-0.9c0-0.4,0-0.7,0-1c0-0.3,0-0.6,0-0.9
					c0-0.3,0-0.6,0-0.9l0-0.6c-0.6-32.3-13.5-62.6-36.3-85.3C190,14.7,160,1.8,128,1.1L126,1c-0.4,0-0.7,0-1,0L122.7,1z"/>
			</defs>
			<linearGradient id="SVGID_5_" gradientUnits="userSpaceOnUse" x1="42.2417" y1="118.9614" x2="248.9989" y2="118.9614">
				<stop  offset="0" style="stop-color:#6CB0E1"/>
				<stop  offset="1" style="stop-color:#ADD6F2"/>
			</linearGradient>
			<use xlink:href="#SVGID_4_"  overflow="visible" fill="url(#SVGID_5_)"/>
			<clipPath id="SVGID_6_">
				<use xlink:href="#SVGID_4_"  overflow="visible"/>
			</clipPath>
		</g>
	</g>
</g>
<g id="guides__x2F__exclusion_zone">
</g>
</svg>
